<mxfile host="app.diagrams.net" agent="Mozilla/5.0 (Windows NT 10.0; Win64; x64) AppleWebKit/537.36 (KHTML, like Gecko) Chrome/133.0.0.0 Safari/537.36" version="26.1.0">
  <diagram name="Page-1" id="btAyTzr6oa576_YAm6R6">
    <mxGraphModel dx="1235" dy="614" grid="1" gridSize="10" guides="1" tooltips="1" connect="1" arrows="1" fold="1" page="1" pageScale="1" pageWidth="850" pageHeight="1100" math="0" shadow="0">
      <root>
        <mxCell id="0" />
        <mxCell id="1" parent="0" />
        <mxCell id="gXJryaC8XMGAXdaEIkzL-100" value="" style="rounded=1;whiteSpace=wrap;html=1;strokeWidth=1;dashed=1;gradientColor=default;fillColor=none;" vertex="1" parent="1">
          <mxGeometry x="520" y="550" width="160" height="140" as="geometry" />
        </mxCell>
        <mxCell id="gXJryaC8XMGAXdaEIkzL-84" value="" style="rounded=1;whiteSpace=wrap;html=1;strokeWidth=1;dashed=1;gradientColor=default;fillColor=none;" vertex="1" parent="1">
          <mxGeometry x="345" y="390" width="160" height="140" as="geometry" />
        </mxCell>
        <mxCell id="gXJryaC8XMGAXdaEIkzL-35" value="" style="rounded=1;whiteSpace=wrap;html=1;strokeWidth=1;dashed=1;gradientColor=default;fillColor=none;" vertex="1" parent="1">
          <mxGeometry x="570" y="30" width="140" height="80" as="geometry" />
        </mxCell>
        <mxCell id="gXJryaC8XMGAXdaEIkzL-58" value="" style="rounded=1;whiteSpace=wrap;html=1;strokeWidth=1;dashed=1;gradientColor=default;fillColor=none;" vertex="1" parent="1">
          <mxGeometry x="800" y="160" width="140" height="80" as="geometry" />
        </mxCell>
        <mxCell id="gXJryaC8XMGAXdaEIkzL-36" value="" style="rounded=1;whiteSpace=wrap;html=1;strokeWidth=1;dashed=1;gradientColor=default;fillColor=none;" vertex="1" parent="1">
          <mxGeometry x="390" y="160" width="350" height="80" as="geometry" />
        </mxCell>
        <mxCell id="gXJryaC8XMGAXdaEIkzL-13" style="edgeStyle=orthogonalEdgeStyle;rounded=0;orthogonalLoop=1;jettySize=auto;html=1;entryX=0.5;entryY=1;entryDx=0;entryDy=0;exitX=0.5;exitY=1;exitDx=0;exitDy=0;fillColor=#ffe6cc;strokeColor=#d79b00;" edge="1" parent="1" source="gXJryaC8XMGAXdaEIkzL-1" target="gXJryaC8XMGAXdaEIkzL-2">
          <mxGeometry relative="1" as="geometry" />
        </mxCell>
        <mxCell id="gXJryaC8XMGAXdaEIkzL-14" style="edgeStyle=orthogonalEdgeStyle;rounded=0;orthogonalLoop=1;jettySize=auto;html=1;entryX=0.5;entryY=0;entryDx=0;entryDy=0;exitX=0.5;exitY=0;exitDx=0;exitDy=0;fillColor=#ffe6cc;strokeColor=#d79b00;" edge="1" parent="1" source="gXJryaC8XMGAXdaEIkzL-1" target="gXJryaC8XMGAXdaEIkzL-4">
          <mxGeometry relative="1" as="geometry" />
        </mxCell>
        <mxCell id="gXJryaC8XMGAXdaEIkzL-29" style="edgeStyle=orthogonalEdgeStyle;rounded=0;orthogonalLoop=1;jettySize=auto;html=1;fillColor=#0050ef;strokeColor=#001DBC;" edge="1" parent="1" source="gXJryaC8XMGAXdaEIkzL-1" target="gXJryaC8XMGAXdaEIkzL-28">
          <mxGeometry relative="1" as="geometry" />
        </mxCell>
        <mxCell id="gXJryaC8XMGAXdaEIkzL-1" value="Motor Driver" style="rounded=1;whiteSpace=wrap;html=1;" vertex="1" parent="1">
          <mxGeometry x="200" y="175" width="110" height="50" as="geometry" />
        </mxCell>
        <mxCell id="gXJryaC8XMGAXdaEIkzL-2" value="Base Controller" style="rounded=1;whiteSpace=wrap;html=1;" vertex="1" parent="1">
          <mxGeometry x="400" y="170" width="120" height="60" as="geometry" />
        </mxCell>
        <mxCell id="gXJryaC8XMGAXdaEIkzL-11" style="edgeStyle=orthogonalEdgeStyle;rounded=0;orthogonalLoop=1;jettySize=auto;html=1;entryX=1;entryY=0.5;entryDx=0;entryDy=0;fillColor=#ffe6cc;strokeColor=#d79b00;" edge="1" parent="1" source="gXJryaC8XMGAXdaEIkzL-4" target="gXJryaC8XMGAXdaEIkzL-2">
          <mxGeometry relative="1" as="geometry" />
        </mxCell>
        <mxCell id="gXJryaC8XMGAXdaEIkzL-59" style="edgeStyle=orthogonalEdgeStyle;rounded=0;orthogonalLoop=1;jettySize=auto;html=1;fillColor=#d5e8d4;strokeColor=#82b366;exitX=1;exitY=0.25;exitDx=0;exitDy=0;entryX=0;entryY=0.25;entryDx=0;entryDy=0;" edge="1" parent="1" source="gXJryaC8XMGAXdaEIkzL-4" target="gXJryaC8XMGAXdaEIkzL-57">
          <mxGeometry relative="1" as="geometry" />
        </mxCell>
        <mxCell id="gXJryaC8XMGAXdaEIkzL-61" style="edgeStyle=orthogonalEdgeStyle;rounded=0;orthogonalLoop=1;jettySize=auto;html=1;entryX=0.5;entryY=1;entryDx=0;entryDy=0;exitX=0.25;exitY=0;exitDx=0;exitDy=0;fillColor=#e1d5e7;strokeColor=#9673a6;" edge="1" parent="1" source="gXJryaC8XMGAXdaEIkzL-4" target="gXJryaC8XMGAXdaEIkzL-25">
          <mxGeometry relative="1" as="geometry" />
        </mxCell>
        <mxCell id="gXJryaC8XMGAXdaEIkzL-4" value="Main Controller" style="rounded=1;whiteSpace=wrap;html=1;" vertex="1" parent="1">
          <mxGeometry x="610" y="170" width="120" height="60" as="geometry" />
        </mxCell>
        <mxCell id="gXJryaC8XMGAXdaEIkzL-12" style="edgeStyle=orthogonalEdgeStyle;rounded=0;orthogonalLoop=1;jettySize=auto;html=1;entryX=1;entryY=0.5;entryDx=0;entryDy=0;fillColor=#ffe6cc;strokeColor=#d79b00;" edge="1" parent="1" source="gXJryaC8XMGAXdaEIkzL-2" target="gXJryaC8XMGAXdaEIkzL-1">
          <mxGeometry relative="1" as="geometry" />
        </mxCell>
        <mxCell id="gXJryaC8XMGAXdaEIkzL-15" value="GPS Module" style="shape=parallelogram;perimeter=parallelogramPerimeter;whiteSpace=wrap;html=1;fixedSize=1;" vertex="1" parent="1">
          <mxGeometry x="670" y="300" width="120" height="30" as="geometry" />
        </mxCell>
        <mxCell id="gXJryaC8XMGAXdaEIkzL-18" style="edgeStyle=orthogonalEdgeStyle;rounded=0;orthogonalLoop=1;jettySize=auto;html=1;entryX=0.25;entryY=1;entryDx=0;entryDy=0;fillColor=#dae8fc;strokeColor=#6c8ebf;" edge="1" parent="1" source="gXJryaC8XMGAXdaEIkzL-16" target="gXJryaC8XMGAXdaEIkzL-4">
          <mxGeometry relative="1" as="geometry" />
        </mxCell>
        <mxCell id="gXJryaC8XMGAXdaEIkzL-16" value="IMU sensor" style="shape=parallelogram;perimeter=parallelogramPerimeter;whiteSpace=wrap;html=1;fixedSize=1;" vertex="1" parent="1">
          <mxGeometry x="550" y="300" width="120" height="30" as="geometry" />
        </mxCell>
        <mxCell id="gXJryaC8XMGAXdaEIkzL-19" style="edgeStyle=orthogonalEdgeStyle;rounded=0;orthogonalLoop=1;jettySize=auto;html=1;entryX=0.703;entryY=1.017;entryDx=0;entryDy=0;entryPerimeter=0;fillColor=#d5e8d4;strokeColor=#82b366;" edge="1" parent="1" source="gXJryaC8XMGAXdaEIkzL-15" target="gXJryaC8XMGAXdaEIkzL-4">
          <mxGeometry relative="1" as="geometry" />
        </mxCell>
        <mxCell id="gXJryaC8XMGAXdaEIkzL-20" value="Command velocities" style="text;html=1;align=center;verticalAlign=middle;whiteSpace=wrap;rounded=0;" vertex="1" parent="1">
          <mxGeometry x="540" y="170" width="60" height="30" as="geometry" />
        </mxCell>
        <mxCell id="gXJryaC8XMGAXdaEIkzL-22" value="Motor speeds in RPM" style="text;html=1;align=center;verticalAlign=middle;whiteSpace=wrap;rounded=0;" vertex="1" parent="1">
          <mxGeometry x="410" y="120" width="120" height="30" as="geometry" />
        </mxCell>
        <mxCell id="gXJryaC8XMGAXdaEIkzL-23" value="Command velocities" style="text;html=1;align=center;verticalAlign=middle;whiteSpace=wrap;rounded=0;" vertex="1" parent="1">
          <mxGeometry x="330" y="170" width="60" height="30" as="geometry" />
        </mxCell>
        <mxCell id="gXJryaC8XMGAXdaEIkzL-24" value="Motor speeds in RPM" style="text;html=1;align=center;verticalAlign=middle;whiteSpace=wrap;rounded=0;" vertex="1" parent="1">
          <mxGeometry x="290" y="240" width="120" height="30" as="geometry" />
        </mxCell>
        <mxCell id="gXJryaC8XMGAXdaEIkzL-26" style="edgeStyle=orthogonalEdgeStyle;rounded=0;orthogonalLoop=1;jettySize=auto;html=1;exitX=1;exitY=0.5;exitDx=0;exitDy=0;fillColor=#e1d5e7;strokeColor=#9673a6;entryX=0.75;entryY=0;entryDx=0;entryDy=0;" edge="1" parent="1" source="gXJryaC8XMGAXdaEIkzL-25" target="gXJryaC8XMGAXdaEIkzL-4">
          <mxGeometry relative="1" as="geometry" />
        </mxCell>
        <mxCell id="gXJryaC8XMGAXdaEIkzL-25" value="Remote Controller" style="rounded=1;whiteSpace=wrap;html=1;" vertex="1" parent="1">
          <mxGeometry x="580" y="40" width="120" height="60" as="geometry" />
        </mxCell>
        <mxCell id="gXJryaC8XMGAXdaEIkzL-27" value="Command velocities" style="text;html=1;align=center;verticalAlign=middle;whiteSpace=wrap;rounded=0;" vertex="1" parent="1">
          <mxGeometry x="730" y="90" width="60" height="30" as="geometry" />
        </mxCell>
        <mxCell id="gXJryaC8XMGAXdaEIkzL-28" value="Hub Motors" style="rounded=1;whiteSpace=wrap;html=1;" vertex="1" parent="1">
          <mxGeometry x="60" y="175" width="110" height="50" as="geometry" />
        </mxCell>
        <mxCell id="gXJryaC8XMGAXdaEIkzL-37" value="" style="rounded=1;whiteSpace=wrap;html=1;strokeWidth=1;dashed=1;gradientColor=default;fillColor=none;" vertex="1" parent="1">
          <mxGeometry x="540" y="290" width="260" height="50" as="geometry" />
        </mxCell>
        <mxCell id="gXJryaC8XMGAXdaEIkzL-38" value="" style="rounded=1;whiteSpace=wrap;html=1;strokeWidth=1;dashed=1;gradientColor=default;fillColor=none;" vertex="1" parent="1">
          <mxGeometry x="50" y="160" width="270" height="80" as="geometry" />
        </mxCell>
        <mxCell id="gXJryaC8XMGAXdaEIkzL-40" value="Orientation and Translation data" style="text;html=1;align=center;verticalAlign=middle;whiteSpace=wrap;rounded=0;" vertex="1" parent="1">
          <mxGeometry x="510" y="250" width="100" height="30" as="geometry" />
        </mxCell>
        <mxCell id="gXJryaC8XMGAXdaEIkzL-41" value="Longitude and latitude" style="text;html=1;align=center;verticalAlign=middle;whiteSpace=wrap;rounded=0;" vertex="1" parent="1">
          <mxGeometry x="730" y="250" width="100" height="30" as="geometry" />
        </mxCell>
        <mxCell id="gXJryaC8XMGAXdaEIkzL-42" value="" style="rounded=0;whiteSpace=wrap;html=1;" vertex="1" parent="1">
          <mxGeometry x="55" y="30" width="485" height="90" as="geometry" />
        </mxCell>
        <mxCell id="gXJryaC8XMGAXdaEIkzL-44" value="" style="endArrow=classic;html=1;rounded=0;fillColor=#0050ef;strokeColor=#001DBC;" edge="1" parent="1">
          <mxGeometry width="50" height="50" relative="1" as="geometry">
            <mxPoint x="70" y="54.58" as="sourcePoint" />
            <mxPoint x="120" y="54.58" as="targetPoint" />
          </mxGeometry>
        </mxCell>
        <mxCell id="gXJryaC8XMGAXdaEIkzL-45" value="Legend" style="text;html=1;align=center;verticalAlign=middle;whiteSpace=wrap;rounded=0;" vertex="1" parent="1">
          <mxGeometry x="55" width="60" height="30" as="geometry" />
        </mxCell>
        <mxCell id="gXJryaC8XMGAXdaEIkzL-46" value="" style="endArrow=classic;html=1;rounded=0;fillColor=#ffe6cc;strokeColor=#d79b00;" edge="1" parent="1">
          <mxGeometry width="50" height="50" relative="1" as="geometry">
            <mxPoint x="70" y="94.58" as="sourcePoint" />
            <mxPoint x="120" y="94.58" as="targetPoint" />
          </mxGeometry>
        </mxCell>
        <mxCell id="gXJryaC8XMGAXdaEIkzL-47" value="" style="endArrow=classic;html=1;rounded=0;fillColor=#dae8fc;strokeColor=#6c8ebf;" edge="1" parent="1">
          <mxGeometry width="50" height="50" relative="1" as="geometry">
            <mxPoint x="230" y="54.579999999999984" as="sourcePoint" />
            <mxPoint x="280" y="54.579999999999984" as="targetPoint" />
          </mxGeometry>
        </mxCell>
        <mxCell id="gXJryaC8XMGAXdaEIkzL-49" value="" style="endArrow=classic;html=1;rounded=0;fillColor=#d5e8d4;strokeColor=#82b366;" edge="1" parent="1">
          <mxGeometry width="50" height="50" relative="1" as="geometry">
            <mxPoint x="230" y="94.58000000000001" as="sourcePoint" />
            <mxPoint x="280" y="94.58000000000001" as="targetPoint" />
          </mxGeometry>
        </mxCell>
        <mxCell id="gXJryaC8XMGAXdaEIkzL-50" value="" style="endArrow=classic;html=1;rounded=0;fillColor=#e1d5e7;strokeColor=#9673a6;" edge="1" parent="1">
          <mxGeometry width="50" height="50" relative="1" as="geometry">
            <mxPoint x="360" y="54.579999999999984" as="sourcePoint" />
            <mxPoint x="410" y="54.579999999999984" as="targetPoint" />
          </mxGeometry>
        </mxCell>
        <mxCell id="gXJryaC8XMGAXdaEIkzL-51" value="3-phase signal" style="text;html=1;align=center;verticalAlign=middle;whiteSpace=wrap;rounded=0;" vertex="1" parent="1">
          <mxGeometry x="110" y="40" width="120" height="30" as="geometry" />
        </mxCell>
        <mxCell id="gXJryaC8XMGAXdaEIkzL-52" value="CAN bus" style="text;html=1;align=center;verticalAlign=middle;whiteSpace=wrap;rounded=0;" vertex="1" parent="1">
          <mxGeometry x="120" y="80" width="70" height="30" as="geometry" />
        </mxCell>
        <mxCell id="gXJryaC8XMGAXdaEIkzL-53" value="I2C" style="text;html=1;align=center;verticalAlign=middle;whiteSpace=wrap;rounded=0;" vertex="1" parent="1">
          <mxGeometry x="280" y="40" width="50" height="30" as="geometry" />
        </mxCell>
        <mxCell id="gXJryaC8XMGAXdaEIkzL-54" value="UART" style="text;html=1;align=center;verticalAlign=middle;whiteSpace=wrap;rounded=0;" vertex="1" parent="1">
          <mxGeometry x="280" y="80" width="60" height="30" as="geometry" />
        </mxCell>
        <mxCell id="gXJryaC8XMGAXdaEIkzL-55" value="ESP-NOW" style="text;html=1;align=center;verticalAlign=middle;whiteSpace=wrap;rounded=0;" vertex="1" parent="1">
          <mxGeometry x="420" y="40" width="60" height="30" as="geometry" />
        </mxCell>
        <mxCell id="gXJryaC8XMGAXdaEIkzL-57" value="Single Board Computer" style="rounded=1;whiteSpace=wrap;html=1;" vertex="1" parent="1">
          <mxGeometry x="810" y="170" width="120" height="60" as="geometry" />
        </mxCell>
        <mxCell id="gXJryaC8XMGAXdaEIkzL-60" value="Telemetry" style="text;html=1;align=center;verticalAlign=middle;whiteSpace=wrap;rounded=0;" vertex="1" parent="1">
          <mxGeometry x="720" y="160" width="100" height="25" as="geometry" />
        </mxCell>
        <mxCell id="gXJryaC8XMGAXdaEIkzL-62" value="Telemetry" style="text;html=1;align=center;verticalAlign=middle;whiteSpace=wrap;rounded=0;" vertex="1" parent="1">
          <mxGeometry x="570" y="110" width="60" height="30" as="geometry" />
        </mxCell>
        <mxCell id="gXJryaC8XMGAXdaEIkzL-65" value="GPS Module" style="shape=parallelogram;perimeter=parallelogramPerimeter;whiteSpace=wrap;html=1;fixedSize=1;" vertex="1" parent="1">
          <mxGeometry x="180" y="487.5" width="120" height="36.81818181818182" as="geometry" />
        </mxCell>
        <mxCell id="gXJryaC8XMGAXdaEIkzL-66" value="IMU sensor" style="shape=parallelogram;perimeter=parallelogramPerimeter;whiteSpace=wrap;html=1;fixedSize=1;" vertex="1" parent="1">
          <mxGeometry x="180" y="438.40909090909093" width="120" height="36.81818181818182" as="geometry" />
        </mxCell>
        <mxCell id="gXJryaC8XMGAXdaEIkzL-67" value="" style="rounded=1;whiteSpace=wrap;html=1;strokeWidth=1;dashed=1;gradientColor=default;fillColor=none;" vertex="1" parent="1">
          <mxGeometry x="160" y="390" width="160" height="300" as="geometry" />
        </mxCell>
        <mxCell id="gXJryaC8XMGAXdaEIkzL-74" value="Wheel Odometry" style="shape=parallelogram;perimeter=parallelogramPerimeter;whiteSpace=wrap;html=1;fixedSize=1;" vertex="1" parent="1">
          <mxGeometry x="180" y="536.5909090909091" width="120" height="36.81818181818182" as="geometry" />
        </mxCell>
        <mxCell id="gXJryaC8XMGAXdaEIkzL-75" value="RGBD Camera" style="shape=parallelogram;perimeter=parallelogramPerimeter;whiteSpace=wrap;html=1;fixedSize=1;" vertex="1" parent="1">
          <mxGeometry x="180" y="585.6818181818182" width="120" height="36.81818181818182" as="geometry" />
        </mxCell>
        <mxCell id="gXJryaC8XMGAXdaEIkzL-76" value="2D LIDAR" style="shape=parallelogram;perimeter=parallelogramPerimeter;whiteSpace=wrap;html=1;fixedSize=1;" vertex="1" parent="1">
          <mxGeometry x="180" y="634.7727272727273" width="120" height="36.81818181818182" as="geometry" />
        </mxCell>
        <mxCell id="gXJryaC8XMGAXdaEIkzL-80" value="&lt;font style=&quot;font-size: 24px;&quot;&gt;Perception&lt;/font&gt;" style="text;html=1;align=center;verticalAlign=middle;whiteSpace=wrap;rounded=0;" vertex="1" parent="1">
          <mxGeometry x="190" y="400" width="100" height="30" as="geometry" />
        </mxCell>
        <mxCell id="gXJryaC8XMGAXdaEIkzL-83" value="&lt;span style=&quot;font-size: 24px;&quot;&gt;Localization&lt;/span&gt;" style="text;html=1;align=center;verticalAlign=middle;whiteSpace=wrap;rounded=0;" vertex="1" parent="1">
          <mxGeometry x="550" y="400" width="100" height="30" as="geometry" />
        </mxCell>
        <mxCell id="gXJryaC8XMGAXdaEIkzL-87" value="" style="group" vertex="1" connectable="0" parent="1">
          <mxGeometry x="345" y="550" width="160" height="140" as="geometry" />
        </mxCell>
        <mxCell id="gXJryaC8XMGAXdaEIkzL-78" value="Navigation 2" style="rounded=1;whiteSpace=wrap;html=1;" vertex="1" parent="gXJryaC8XMGAXdaEIkzL-87">
          <mxGeometry x="20" y="53.84615384615385" width="120" height="64.61538461538461" as="geometry" />
        </mxCell>
        <mxCell id="gXJryaC8XMGAXdaEIkzL-81" value="&lt;span style=&quot;font-size: 24px;&quot;&gt;Navigation&lt;/span&gt;" style="text;html=1;align=center;verticalAlign=middle;whiteSpace=wrap;rounded=0;" vertex="1" parent="gXJryaC8XMGAXdaEIkzL-87">
          <mxGeometry x="30" y="10.769230769230768" width="100" height="32.30769230769231" as="geometry" />
        </mxCell>
        <mxCell id="gXJryaC8XMGAXdaEIkzL-85" value="" style="rounded=1;whiteSpace=wrap;html=1;strokeWidth=1;dashed=1;gradientColor=default;fillColor=none;" vertex="1" parent="gXJryaC8XMGAXdaEIkzL-87">
          <mxGeometry width="160" height="140" as="geometry" />
        </mxCell>
        <mxCell id="gXJryaC8XMGAXdaEIkzL-88" style="edgeStyle=orthogonalEdgeStyle;rounded=0;orthogonalLoop=1;jettySize=auto;html=1;entryX=1;entryY=0.75;entryDx=0;entryDy=0;exitX=0;exitY=0.75;exitDx=0;exitDy=0;fillColor=#d5e8d4;strokeColor=#82b366;" edge="1" parent="1" source="gXJryaC8XMGAXdaEIkzL-57" target="gXJryaC8XMGAXdaEIkzL-4">
          <mxGeometry relative="1" as="geometry" />
        </mxCell>
        <mxCell id="gXJryaC8XMGAXdaEIkzL-89" value="Command velocities" style="text;html=1;align=center;verticalAlign=middle;whiteSpace=wrap;rounded=0;" vertex="1" parent="1">
          <mxGeometry x="720" y="187.5" width="100" height="25" as="geometry" />
        </mxCell>
        <mxCell id="gXJryaC8XMGAXdaEIkzL-91" value="robot_localization" style="rounded=1;whiteSpace=wrap;html=1;" vertex="1" parent="1">
          <mxGeometry x="540" y="450" width="120" height="60" as="geometry" />
        </mxCell>
        <mxCell id="gXJryaC8XMGAXdaEIkzL-79" value="SLAM Toolbox" style="rounded=1;whiteSpace=wrap;html=1;" vertex="1" parent="1">
          <mxGeometry x="365" y="450" width="120" height="60" as="geometry" />
        </mxCell>
        <mxCell id="gXJryaC8XMGAXdaEIkzL-82" value="&lt;span style=&quot;font-size: 24px;&quot;&gt;Mapping&lt;/span&gt;" style="text;html=1;align=center;verticalAlign=middle;whiteSpace=wrap;rounded=0;" vertex="1" parent="1">
          <mxGeometry x="375" y="400" width="100" height="30" as="geometry" />
        </mxCell>
        <mxCell id="gXJryaC8XMGAXdaEIkzL-96" value="" style="rounded=1;whiteSpace=wrap;html=1;strokeWidth=1;dashed=1;gradientColor=default;fillColor=none;" vertex="1" parent="1">
          <mxGeometry x="520" y="390" width="160" height="140" as="geometry" />
        </mxCell>
        <mxCell id="gXJryaC8XMGAXdaEIkzL-98" value="Main Controller (Communicate through serial (UART))" style="rounded=1;whiteSpace=wrap;html=1;" vertex="1" parent="1">
          <mxGeometry x="540" y="603.8461538461538" width="120" height="64.61538461538461" as="geometry" />
        </mxCell>
        <mxCell id="gXJryaC8XMGAXdaEIkzL-99" value="&lt;span style=&quot;font-size: 24px;&quot;&gt;Control&lt;/span&gt;" style="text;html=1;align=center;verticalAlign=middle;whiteSpace=wrap;rounded=0;" vertex="1" parent="1">
          <mxGeometry x="550" y="560.7692307692307" width="100" height="32.30769230769231" as="geometry" />
        </mxCell>
      </root>
    </mxGraphModel>
  </diagram>
</mxfile>
